<svg width="100%" height="100%" viewBox="0 0 754 66" fill="none" xmlns="http://www.w3.org/2000/svg">
<g transform="translate(0.000000,66.000000) scale(0.100000,-0.100000)" fill="#FFFEF4" stroke="none">
<path d="M223 650 c-115 -24 -184 -94 -186 -187 -1 -90 62 -132 235 -157 197
-29 255 -44 278 -73 65 -84 -24 -148 -205 -148 -85 0 -107 4 -148 24 -46 22
-77 61 -77 96 0 12 -12 15 -56 15 l-57 0 6 -40 c18 -139 235 -215 470 -165
131 28 197 86 197 174 0 107 -62 146 -300 186 -193 33 -224 46 -228 97 -6 68
61 108 178 108 112 -1 171 -28 203 -93 18 -36 20 -37 74 -37 l55 0 -7 33 c-17
76 -61 122 -150 152 -57 20 -219 29 -282 15z"/>
<path d="M2200 540 c0 -60 -2 -110 -5 -110 -2 0 -20 11 -40 24 -65 44 -194 47
-273 7 -135 -69 -174 -262 -75 -372 48 -54 104 -81 178 -86 71 -6 128 8 179
42 l36 24 0 -29 c0 -29 1 -30 50 -30 l50 0 0 320 0 320 -50 0 -50 0 0 -110z
m-80 -142 c62 -32 82 -73 78 -160 -6 -111 -59 -163 -166 -163 -76 0 -120 23
-149 78 -24 46 -22 144 3 188 24 42 94 79 149 79 22 0 61 -10 85 -22z"/>
<path d="M2450 605 l0 -45 50 0 50 0 0 45 0 45 -50 0 -50 0 0 -45z"/>
<path d="M3714 518 c35 -73 103 -217 152 -320 l89 -187 63 -1 63 0 53 112 c30
62 99 207 154 321 l101 208 -65 -3 -65 -3 -117 -262 c-64 -145 -119 -263 -122
-263 -4 0 -60 119 -125 265 l-117 265 -64 0 -63 0 63 -132z"/>
<path d="M4470 605 l0 -45 50 0 50 0 0 45 0 45 -50 0 -50 0 0 -45z"/>
<path d="M5320 605 l0 -45 50 0 50 0 0 45 0 45 -50 0 -50 0 0 -45z"/>
<path d="M830 545 l0 -65 -45 0 c-45 0 -45 0 -45 -35 0 -35 0 -35 45 -35 l45
0 0 -174 c0 -168 1 -176 23 -202 18 -20 35 -28 75 -32 80 -7 102 2 102 43 0
34 -1 35 -38 35 -21 0 -43 5 -50 12 -8 8 -12 59 -12 165 l0 153 50 0 50 0 0
35 0 35 -50 0 -50 0 0 65 0 65 -50 0 -50 0 0 -65z"/>
<path d="M2858 477 c-100 -29 -161 -95 -180 -193 -30 -163 87 -284 276 -284
126 0 224 48 269 133 17 33 22 59 22 124 0 75 -2 85 -30 125 -46 65 -121 99
-226 104 -52 2 -102 -1 -131 -9z m211 -83 c69 -41 89 -150 45 -239 -31 -64
-63 -80 -154 -80 -93 0 -122 16 -158 86 -44 84 -12 195 69 237 36 19 55 23
105 19 35 -3 76 -13 93 -23z"/>
<path d="M4843 481 c-80 -21 -135 -76 -135 -135 0 -68 43 -93 223 -130 70 -14
129 -26 132 -26 4 0 14 -11 23 -25 15 -23 15 -27 1 -49 -45 -69 -275 -54 -293
19 -6 22 -11 25 -55 25 -55 0 -60 -10 -34 -59 24 -46 70 -79 132 -92 73 -15
204 -7 261 16 78 32 116 102 89 167 -19 46 -58 63 -207 93 -128 25 -170 43
-170 74 0 31 35 52 97 58 73 7 136 -10 161 -42 16 -20 29 -25 67 -25 44 0 46
1 39 23 -23 74 -87 108 -212 113 -48 2 -101 0 -119 -5z"/>
<path d="M5718 477 c-100 -29 -161 -95 -180 -193 -30 -163 87 -284 276 -284
126 0 224 48 269 133 17 33 22 59 22 124 0 75 -2 85 -30 125 -46 65 -121 99
-226 104 -52 2 -102 -1 -131 -9z m211 -83 c69 -41 89 -150 45 -239 -31 -64
-63 -80 -154 -80 -93 0 -122 16 -158 86 -44 84 -12 195 69 237 36 19 55 23
105 19 35 -3 76 -13 93 -23z"/>
<path d="M6436 476 c-22 -8 -52 -24 -67 -35 -37 -27 -39 -27 -39 9 0 29 -2 30
-45 30 l-45 0 0 -235 0 -235 50 0 50 0 0 153 c0 135 2 156 20 185 50 82 220
97 260 23 6 -11 10 -92 10 -190 l0 -171 56 0 56 0 -4 189 c-3 211 -7 224 -78
265 -43 26 -169 32 -224 12z"/>
<path d="M1132 291 c3 -174 5 -192 24 -218 33 -44 79 -65 152 -71 78 -5 134 8
186 43 l36 24 0 -29 c0 -29 1 -30 50 -30 l50 0 0 235 0 235 -50 0 -50 0 0
-122 c-1 -187 -20 -241 -97 -274 -66 -28 -158 -10 -183 35 -6 11 -10 92 -10
190 l0 171 -56 0 -56 0 4 -189z"/>
<path d="M2450 245 l0 -235 50 0 50 0 0 235 0 235 -50 0 -50 0 0 -235z"/>
<path d="M4470 245 l0 -235 50 0 50 0 0 235 0 235 -50 0 -50 0 0 -235z"/>
<path d="M5320 245 l0 -235 50 0 50 0 0 235 0 235 -50 0 -50 0 0 -235z"/>
<path d="M6910 450 c0 -17 7 -20 45 -20 l45 0 0 -90 0 -90 30 0 30 0 0 90 0
90 50 0 c43 0 50 3 50 20 0 19 -7 20 -125 20 -118 0 -125 -1 -125 -20z"/>
<path d="M7210 360 l0 -110 30 0 30 0 1 83 1 82 38 -82 c33 -70 43 -83 63 -83
20 0 30 14 64 88 l41 87 1 -87 c1 -87 1 -88 26 -88 l25 0 0 110 0 110 -40 0
c-40 0 -40 0 -79 -77 l-39 -78 -38 78 -38 77 -43 0 -43 0 0 -110z"/>
</g>
</svg>
