<svg viewBox="0 0 68 68" fill="none" xmlns="http://www.w3.org/2000/svg">
<path d="M34 68C15.2223 68 0 52.7777 0 34C0 15.2223 15.2223 0 34 0C52.7777 0 68 15.2223 68 34C68 52.7777 52.7777 68 34 68ZM34 8.5C19.9165 8.5 8.5 19.9165 8.5 34C8.5 48.0835 19.9165 59.5 34 59.5C48.0835 59.5 59.5 48.0835 59.5 34C59.5 19.9165 48.0835 8.5 34 8.5Z" fill="#800080"/>
<path d="M14 42.5V25.5H8.5V17H31V25.5H25.5V42.5H14Z" fill="#800080"/>
<path d="M33 42.5L32.9833 38.25C31.7333 39.6667 30.1667 40.7917 28.2833 41.625C26.4 42.4583 24.3333 42.875 22.0833 42.875C20.9167 42.875 19.8 42.7917 18.7333 42.625C17.6667 42.4583 16.6667 42.2083 15.7333 41.875C14.8 41.5417 13.9333 41.125 13.1333 40.625C12.3333 40.125 11.6 39.5417 10.9333 38.875C10.2667 38.2083 9.66667 37.4583 9.13333 36.625C8.6 35.7917 8.16667 34.875 7.83333 33.875C7.5 32.875 7.33333 31.8333 7.33333 30.75C7.33333 29.6667 7.5 28.625 7.83333 27.625C8.16667 26.625 8.6 25.7083 9.13333 24.875C9.66667 24.0417 10.2667 23.2917 10.9333 22.625C11.6 21.9583 12.3333 21.375 13.1333 20.875C13.9333 20.375 14.8 19.9583 15.7333 19.625C16.6667 19.2917 17.6667 19.0417 18.7333 18.875C19.8 18.7083 20.9167 18.625 22.0833 18.625C23.25 18.625 24.3667 18.7083 25.4333 18.875C26.5 19.0417 27.5 19.2917 28.4333 19.625C29.3667 19.9583 30.2333 20.375 31.0333 20.875C31.8333 21.375 32.5667 21.9583 33.2333 22.625C33.9 23.2917 34.5 24.0417 35.0333 24.875C35.5667 25.7083 36 26.625 36.3333 27.625C36.6667 28.625 36.8333 29.6667 36.8333 30.75H28.3333C28.3333 29.5833 27.9667 28.625 27.2333 27.875C26.5 27.125 25.5 26.75 24.2333 26.75C22.9667 26.75 21.9667 27.125 21.2333 27.875C20.5 28.625 20.1333 29.5833 20.1333 30.75C20.1333 31.9167 20.5 32.875 21.2333 33.625C21.9667 34.375 22.9667 34.75 24.2333 34.75C25.5 34.75 26.5 34.375 27.2333 33.625C27.9667 32.875 28.3333 31.9167 28.3333 30.75H36.8333V42.5H33Z" fill="#800080"/>
<path d="M38 17H60V25.5H49.5V30H58V35H49.5V42.5H38V17Z" fill="#800080"/>
</svg> 