<svg width="100%" height="100%" viewBox="0 0 68 68" fill="none" xmlns="http://www.w3.org/2000/svg">
  <path d="M58.8194 67.9077C42.0011 67.9077 28.5553 65.9674 18.4822 62.087C8.4092 58.2066 2.24845 52.6631 0 45.4566H38.5834C39.5727 48.2899 41.6863 50.3841 44.9241 51.7391C48.1618 53.0942 52.5238 53.7718 58.01 53.7718C63.3162 53.7718 67.2737 53.3098 69.8817 52.3859C72.49 51.4003 73.7941 50.2301 73.7941 48.875C73.7941 48.3823 73.6142 47.9203 73.2545 47.4891C72.8947 47.058 72.3551 46.6576 71.6356 46.2881C71.0059 45.9184 70.2416 45.6105 69.3422 45.3641C68.4428 45.0562 67.3634 44.779 66.1044 44.5326C64.9351 44.2863 63.6761 44.0707 62.3271 43.8859C60.9779 43.6394 59.5389 43.4239 58.01 43.2392C56.481 43.0544 54.8622 42.9004 53.1533 42.7772C51.4445 42.5924 49.7356 42.4077 48.0268 42.2228C46.2282 42.038 44.3843 41.8533 42.4957 41.6685C40.6969 41.4837 38.8533 41.2681 36.9645 41.0218C35.1657 40.7754 33.3669 40.529 31.5683 40.2826C29.7695 39.9747 27.9707 39.6667 26.1719 39.3587C24.3733 39.0507 22.6193 38.7119 20.9105 38.3424C19.2916 37.9113 17.6728 37.4493 16.0539 36.9565C14.525 36.4638 13.041 35.9402 11.602 35.3858C10.2529 34.7699 8.9938 34.1232 7.8246 33.4456C6.6554 32.7066 5.57616 31.9367 4.58683 31.1359C3.68745 30.3351 2.87801 29.4728 2.15851 28.549C1.52895 27.5634 1.03429 26.5163 0.674533 25.4076C0.314783 24.2989 0.134906 23.0978 0.134906 21.8043C0.134906 20.0182 0.494659 18.2935 1.21416 16.6305C2.02361 14.9674 3.14783 13.4275 4.58683 12.0109C6.11578 10.5326 7.9595 9.17754 10.118 7.94565C12.3665 6.71377 14.9747 5.63588 17.9426 4.71195C20.9105 3.72645 24.1933 2.89493 27.7908 2.2174C31.4783 1.53986 35.4805 1.01631 39.7975 0.646741C44.2046 0.277178 48.9262 0.092396 53.9628 0.092396C70.5114 0.092396 83.7773 2.09421 93.7602 6.09784C103.743 10.0399 109.904 15.5525 112.243 22.6358H74.3336C73.3445 19.9873 71.1858 17.9855 67.8581 16.6305C64.6203 15.2137 60.3934 14.5054 55.1769 14.5054C50.0504 14.5054 46.363 14.9674 44.1146 15.8913C41.866 16.7536 40.7418 17.8008 40.7418 19.0326C40.7418 19.5869 40.9217 20.0797 41.2816 20.5109C41.7312 20.942 42.3158 21.3424 43.0353 21.712C43.7548 22.0199 44.6093 22.3279 45.5985 22.6358C46.5878 22.9439 47.712 23.221 48.9713 23.4674C50.2303 23.7138 51.5793 23.9601 53.0185 24.2065C54.5474 24.3914 56.1212 24.576 57.7401 24.7609C59.4489 24.9457 61.1578 25.1613 62.8666 25.4076C64.6654 25.5924 66.5091 25.7772 68.3979 25.9619C70.2864 26.1467 72.2201 26.3623 74.1988 26.6087C76.1775 26.855 78.1112 27.1015 79.9997 27.3478C81.9785 27.5942 83.9121 27.9021 85.8009 28.2718C87.6894 28.5797 89.5333 28.9492 91.3319 29.3805C93.2207 29.75 95.0195 30.1811 96.7283 30.6739C98.4372 31.1051 100.011 31.6286 101.45 32.2446C102.979 32.7989 104.373 33.4456 105.632 34.1848C106.981 34.8624 108.195 35.6323 109.275 36.4945C110.354 37.2953 111.253 38.1884 111.973 39.1739C112.692 40.1594 113.232 41.2374 113.592 42.4077C114.041 43.5164 114.266 44.7174 114.266 46.0109C114.266 52.4167 109.365 57.683 99.5614 61.8098C89.7581 65.875 76.1775 67.9077 58.8194 67.9077Z" fill="#FFFEF4"/>
</svg> 