<svg viewBox="0 0 68 68" fill="none" xmlns="http://www.w3.org/2000/svg">
<path d="M34 68C15.2223 68 0 52.7777 0 34C0 15.2223 15.2223 0 34 0C52.7777 0 68 15.2223 68 34C68 52.7777 52.7777 68 34 68ZM34 8.5C19.9165 8.5 8.5 19.9165 8.5 34C8.5 48.0835 19.9165 59.5 34 59.5C48.0835 59.5 59.5 48.0835 59.5 34C59.5 19.9165 48.0835 8.5 34 8.5Z" fill="#800080"/>
<path d="M22.6667 42.5V25.5H17V17H39.6667V25.5H34V42.5H22.6667ZM51 42.5L50.9833 38.25C49.7333 39.6667 48.1667 40.7917 46.2833 41.625C44.4 42.4583 42.3333 42.875 40.0833 42.875C38.9167 42.875 37.8 42.7917 36.7333 42.625C35.6667 42.4583 34.6667 42.2083 33.7333 41.875C32.8 41.5417 31.9333 41.125 31.1333 40.625C30.3333 40.125 29.6 39.5417 28.9333 38.875C28.2667 38.2083 27.6667 37.4583 27.1333 36.625C26.6 35.7917 26.1667 34.875 25.8333 33.875C25.5 32.875 25.3333 31.8333 25.3333 30.75C25.3333 29.6667 25.5 28.625 25.8333 27.625C26.1667 26.625 26.6 25.7083 27.1333 24.875C27.6667 24.0417 28.2667 23.2917 28.9333 22.625C29.6 21.9583 30.3333 21.375 31.1333 20.875C31.9333 20.375 32.8 19.9583 33.7333 19.625C34.6667 19.2917 35.6667 19.0417 36.7333 18.875C37.8 18.7083 38.9167 18.625 40.0833 18.625C41.25 18.625 42.3667 18.7083 43.4333 18.875C44.5 19.0417 45.5 19.2917 46.4333 19.625C47.3667 19.9583 48.2333 20.375 49.0333 20.875C49.8333 21.375 50.5667 21.9583 51.2333 22.625C51.9 23.2917 52.5 24.0417 53.0333 24.875C53.5667 25.7083 54 26.625 54.3333 27.625C54.6667 28.625 54.8333 29.6667 54.8333 30.75H46.3333C46.3333 29.5833 45.9667 28.625 45.2333 27.875C44.5 27.125 43.5 26.75 42.2333 26.75C40.9667 26.75 39.9667 27.125 39.2333 27.875C38.5 28.625 38.1333 29.5833 38.1333 30.75C38.1333 31.9167 38.5 32.875 39.2333 33.625C39.9667 34.375 40.9667 34.75 42.2333 34.75C43.5 34.75 44.5 34.375 45.2333 33.625C45.9667 32.875 46.3333 31.9167 46.3333 30.75H54.8333V42.5H51Z" fill="#800080"/>
</svg> 